# xmcd
#
# Track frame offsets: 
#        150
#        10365
#        23584
#        34646
#        37196
#        48858
#        60505
#        79817
#        90242
#        106704
#
# Disc length: 2456 seconds
#
# Revision: 0
# Processed by: cddbd v1.5.2PL0 Copyright (c) Steve Scherf et al.
# Submitted via: ExactAudioCopy v0.99pb5
#
DISCID=6709960a
DTITLE=The Sadists - Alabama chrome
DYEAR=2008
DGENRE=Country
TTITLE0=Redneck on the run
TTITLE1=Chain song
TTITLE2=I said
TTITLE3=Zuu song
TTITLE4=Daddy's car
TTITLE5=Wasteland in my mind
TTITLE6=Walked on mountain side
TTITLE7=Lord, I have a question
TTITLE8=Leopard in the sun
TTITLE9=Beat that train a-runnin'
EXTD=
EXTT0=
EXTT1=
EXTT2=
EXTT3=
EXTT4=
EXTT5=
EXTT6=
EXTT7=
EXTT8=
EXTT9=
PLAYORDER=
